<!DOCTYPE svg PUBLIC "-//W3C//DTD SVG 20010904//EN" "http://www.w3.org/TR/2001/REC-SVG-20010904/DTD/svg10.dtd">
<svg version="1.0" xmlns="http://www.w3.org/2000/svg" width="1285px" height="1285px" viewBox="0 0 12850 12850" preserveAspectRatio="xMidYMid meet">
<g id="layer101" fill="#ffffff" stroke="none">
 <path d="M5955 12839 c-1791 -135 -3432 -998 -4550 -2394 -817 -1020 -1297 -2249 -1395 -3570 -5 -77 -10 -279 -10 -450 0 -420 20 -673 81 -1045 450 -2726 2573 -4849 5299 -5299 372 -61 625 -81 1045 -81 420 0 673 20 1045 81 2726 450 4849 2573 5299 5299 61 372 81 625 81 1045 0 420 -20 673 -81 1045 -290 1757 -1280 3298 -2758 4294 -925 623 -2001 992 -3136 1076 -162 12 -758 11 -920 -1z m730 -2329 c354 -10 413 -19 467 -68 67 -61 70 -73 79 -312 4 -118 8 -257 8 -307 l1 -93 -50 0 -50 0 0 -179 0 -179 1153 -5 c758 -3 1170 -8 1206 -15 131 -27 253 -114 332 -240 59 -93 94 -183 145 -375 56 -211 98 -324 184 -502 160 -330 393 -611 698 -840 133 -100 242 -168 442 -275 265 -141 347 -214 433 -390 l52 -105 3 -1160 c2 -663 -1 -1208 -6 -1271 -6 -71 -17 -127 -30 -156 -26 -61 -138 -177 -204 -213 -49 -27 -64 -30 -203 -36 -82 -4 -1062 -8 -2177 -8 l-2028 -1 0 -129 c0 -164 6 -181 61 -181 l41 0 -4 -282 c-4 -279 -4 -284 -29 -338 -32 -67 -70 -106 -118 -120 -63 -19 -342 -29 -803 -30 l-448 0 0 -179 c0 -98 -5 -203 -10 -232 -24 -130 -131 -274 -243 -329 -111 -54 -139 -55 -1012 -54 -688 1 -806 4 -843 17 -122 43 -255 158 -304 263 -28 61 -30 73 -38 251 -5 104 -9 205 -10 226 l0 37 -467 1 c-583 0 -732 8 -790 37 -51 27 -97 82 -113 136 -8 26 -14 143 -17 319 l-5 277 364 0 c417 1 642 11 685 33 92 48 102 149 23 235 l-39 42 -471 0 -470 0 2 2833 3 2832 455 5 c392 4 460 7 491 21 92 42 116 147 49 222 l-28 32 -531 3 -531 3 0 267 c0 147 5 286 10 309 13 57 66 140 99 157 50 27 156 39 396 46 357 10 3854 11 4190 0z"/>
 <path d="M7570 8818 c-48 -26 -61 -70 -58 -198 6 -185 24 -203 203 -204 216 -2 220 3 220 221 0 131 -2 155 -17 170 -15 14 -42 18 -170 21 -113 2 -160 0 -178 -10z"/>
 <path d="M8413 8823 c-54 -7 -58 -19 -58 -200 0 -159 1 -165 22 -183 48 -38 319 -35 363 5 26 23 40 93 41 196 0 101 -18 155 -61 176 -24 12 -227 16 -307 6z"/>
 <path d="M9233 8819 c-51 -15 -58 -38 -58 -184 0 -208 11 -220 215 -220 103 0 131 3 153 18 53 35 62 61 62 187 0 129 -11 170 -53 191 -33 16 -273 22 -319 8z"/>
 <path d="M2755 7581 c-96 -27 -164 -70 -250 -156 -58 -57 -90 -99 -113 -147 -59 -122 -62 -150 -62 -710 l0 -508 380 0 380 0 0 395 0 395 770 0 770 0 0 375 0 375 -907 -1 c-828 0 -913 -2 -968 -18z"/>
 <path d="M4830 6830 l0 -770 1151 0 1151 0 -7 38 c-10 53 -61 146 -113 203 l-44 49 44 49 c24 27 60 77 78 112 l35 64 3 513 3 512 -381 0 -380 0 0 -480 0 -480 -390 0 -390 0 0 480 0 480 -380 0 -380 0 0 -770z"/>
 <path d="M7390 6585 l0 -255 386 0 387 0 -6 36 c-8 46 -40 94 -85 125 -34 23 -43 24 -229 27 l-193 3 0 160 0 159 -130 0 -130 0 0 -255z"/>
 <path d="M8220 6585 l0 -255 385 0 385 0 0 255 0 255 -125 0 -124 0 -3 -157 -3 -158 -127 -3 -128 -3 0 161 0 160 -130 0 -130 0 0 -255z"/>
 <path d="M9169 6820 c-47 -25 -86 -71 -99 -118 -5 -20 -10 -115 -10 -209 l0 -173 130 0 130 0 0 135 0 135 130 0 130 0 0 -135 0 -135 125 0 125 0 0 185 c0 136 -4 194 -14 218 -17 39 -71 92 -109 106 -17 7 -121 11 -265 11 -214 -1 -241 -3 -273 -20z"/>
 <path d="M10150 6580 l0 -260 125 0 125 0 0 260 0 260 -125 0 -125 0 0 -260z"/>
 <path d="M10829 6820 c-47 -25 -86 -71 -99 -118 -5 -20 -10 -115 -10 -209 l0 -173 130 0 130 0 0 135 0 135 130 0 130 0 0 -135 0 -135 125 0 125 0 0 185 c0 136 -4 194 -14 218 -17 39 -71 92 -109 106 -17 7 -121 11 -265 11 -214 -1 -241 -3 -273 -20z"/>
 <path d="M7390 6135 l0 -125 310 0 c342 0 350 1 407 61 40 43 53 77 53 140 l0 49 -385 0 -385 0 0 -125z"/>
 <path d="M8220 6135 l0 -125 130 0 130 0 0 125 0 125 -130 0 -130 0 0 -125z"/>
 <path d="M8740 6135 l0 -125 125 0 125 0 0 125 0 125 -125 0 -125 0 0 -125z"/>
 <path d="M9060 6223 c0 -88 40 -157 111 -193 35 -18 60 -20 274 -20 260 0 277 3 332 61 40 43 53 77 53 140 l0 49 -385 0 -385 0 0 -37z"/>
 <path d="M9890 6135 l0 -125 385 0 385 0 0 125 0 125 -385 0 -385 0 0 -125z"/>
 <path d="M10720 6223 c0 -88 40 -157 111 -193 35 -18 60 -20 274 -20 260 0 277 3 332 61 40 43 53 77 53 140 l0 49 -385 0 -385 0 0 -37z"/>
 <path d="M2330 5738 c1 -216 44 -332 175 -464 87 -88 180 -142 283 -163 36 -8 337 -11 947 -11 l895 0 0 375 0 375 -1150 0 -1150 0 0 -112z"/>
 <path d="M4830 5475 l0 -375 901 0 c994 0 959 -2 1084 63 36 19 92 63 140 112 130 130 174 246 175 463 l0 112 -1150 0 -1150 0 0 -375z"/>
 <path d="M10129 4729 c-83 -9 -105 -20 -118 -61 -30 -95 -20 -283 16 -320 24 -23 149 -40 238 -32 148 14 169 42 163 220 -4 128 -18 160 -79 180 -50 16 -144 22 -220 13z"/>
 <path d="M7575 4716 c-45 -20 -57 -57 -63 -187 -4 -102 -2 -120 16 -156 12 -22 28 -43 37 -47 22 -8 283 -8 324 0 43 9 53 53 49 220 -4 182 0 178 -191 181 -103 2 -150 -1 -172 -11z"/>
 <path d="M8400 4717 c-13 -7 -30 -24 -37 -37 -16 -31 -17 -258 -3 -311 13 -46 26 -49 217 -49 143 0 144 0 168 26 32 34 39 74 33 197 -5 119 -21 159 -69 176 -45 15 -277 14 -309 -2z"/>
 <path d="M9241 4721 c-13 -3 -34 -19 -45 -34 -19 -26 -21 -42 -21 -160 0 -154 6 -184 41 -197 14 -6 92 -10 172 -10 166 0 182 5 204 68 7 22 13 82 13 147 0 174 -25 196 -222 194 -65 -1 -129 -4 -142 -8z"/>
 <path d="M10885 4721 c-11 -5 -29 -19 -40 -31 -18 -20 -20 -36 -20 -171 0 -203 -10 -194 210 -194 216 0 209 -6 213 173 5 157 -6 198 -53 218 -38 16 -274 19 -310 5z"/>
 </g>

</svg>