<!DOCTYPE svg PUBLIC "-//W3C//DTD SVG 20010904//EN" "http://www.w3.org/TR/2001/REC-SVG-20010904/DTD/svg10.dtd">
<svg version="1.0" xmlns="http://www.w3.org/2000/svg" width="980px" height="862px" viewBox="0 0 9800 8620" preserveAspectRatio="xMidYMid meet">
<g id="layer101" fill="#7395ae" stroke="none">
 <path d="M404 8610 c-260 -12 -307 -25 -352 -98 -50 -82 -52 -96 -52 -398 l0 -284 453 -1 c530 0 612 -6 638 -40 61 -78 34 -174 -61 -218 -30 -13 -100 -16 -488 -19 l-452 -4 0 -2839 0 -2839 474 0 474 0 32 -36 c17 -20 36 -47 41 -61 26 -68 -5 -140 -74 -169 -39 -17 -82 -19 -540 -22 l-499 -3 4 -292 c3 -210 8 -302 17 -327 23 -59 58 -97 118 -127 l58 -28 598 -3 597 -4 0 -96 c1 -53 5 -157 9 -230 8 -120 12 -140 40 -197 42 -84 146 -182 249 -233 l76 -37 743 -4 c969 -4 1039 2 1163 100 63 50 135 156 160 238 17 54 20 92 20 261 l0 198 593 5 c644 4 669 6 726 61 15 15 39 48 52 74 24 46 24 53 27 344 l4 297 -44 3 -43 3 -3 143 -3 142 1568 1 c863 0 1836 4 2165 8 l596 7 65 32 c79 39 172 134 213 219 l29 58 3 1263 3 1263 -50 102 c-89 184 -168 257 -430 396 -295 157 -485 289 -671 468 -331 317 -535 678 -670 1186 -22 81 -53 180 -70 219 -63 147 -158 261 -265 316 -113 58 -59 55 -1327 59 l-1168 4 0 180 0 179 52 0 51 0 -6 293 c-4 160 -12 309 -18 330 -5 21 -29 57 -52 81 -54 56 -91 64 -357 76 -237 11 -4176 10 -4416 0z m5504 -1696 c31 -9 37 -40 36 -189 -1 -157 -9 -180 -64 -195 -52 -14 -228 -14 -279 0 -50 13 -71 56 -78 160 -10 142 19 222 85 234 35 6 270 -2 300 -10z m823 2 c8 -4 24 -21 35 -39 16 -27 19 -50 19 -147 -1 -144 -15 -183 -72 -199 -50 -14 -261 -14 -301 0 -45 16 -56 63 -49 223 6 147 10 156 84 167 56 9 261 5 284 -5z m822 -7 c47 -21 57 -55 57 -184 0 -188 -18 -205 -215 -205 -185 0 -202 14 -207 165 -6 192 5 222 83 236 64 11 249 4 282 -12z m-4923 -1584 l0 -375 -770 0 -770 0 0 -395 0 -395 -370 0 -371 0 3 548 c3 540 4 548 26 607 69 182 237 329 422 369 53 12 231 15 948 15 l882 1 0 -375z m960 -105 l0 -480 400 0 400 0 0 480 0 480 370 0 370 0 0 -507 0 -508 -29 -60 c-16 -33 -50 -85 -75 -115 -25 -30 -46 -57 -46 -60 0 -3 21 -30 46 -60 53 -64 104 -163 104 -202 l0 -28 -1140 0 -1140 0 0 770 0 770 370 0 370 0 0 -480z m2060 -439 l0 -159 193 -4 c191 -3 194 -3 234 -30 45 -30 77 -76 88 -125 l7 -33 -381 0 -381 0 0 255 0 255 120 0 120 0 0 -159z m830 -1 l0 -160 135 0 135 0 0 160 0 160 125 0 125 0 0 -255 0 -255 -380 0 -380 0 0 255 0 255 120 0 120 0 0 -160z m1271 125 c75 -53 84 -83 87 -292 l4 -183 -126 0 -126 0 0 130 0 130 -135 0 -135 0 0 -130 0 -130 -120 0 -120 0 0 179 c0 191 5 219 48 265 58 62 82 67 344 64 l236 -3 43 -30z m659 -220 l0 -255 -125 0 -125 0 0 255 0 255 125 0 125 0 0 -255z m1001 220 c75 -53 84 -83 87 -292 l4 -183 -126 0 -126 0 0 130 0 130 -135 0 -135 0 0 -130 0 -130 -120 0 -120 0 0 179 c0 191 5 219 48 265 58 62 82 67 344 64 l236 -3 43 -30z m-3244 -601 c-8 -73 -34 -122 -86 -159 l-43 -30 -314 -3 -314 -3 0 125 0 126 381 0 382 0 -6 -56z m313 -69 l0 -125 -120 0 -120 0 0 125 0 125 120 0 120 0 0 -125z m520 0 l0 -125 -125 0 -125 0 0 125 0 125 125 0 125 0 0 -125z m837 69 c-8 -73 -34 -122 -86 -159 l-43 -30 -226 -3 c-251 -4 -282 1 -339 51 -45 39 -63 82 -63 147 l0 50 381 0 382 0 -6 -56z m833 -69 l0 -125 -380 0 -380 0 0 125 0 125 380 0 380 0 0 -125z m827 69 c-8 -73 -34 -122 -86 -159 l-43 -30 -226 -3 c-251 -4 -282 1 -339 51 -45 39 -63 82 -63 147 l0 50 381 0 382 0 -6 -56z m-6867 -729 l0 -375 -877 0 c-972 0 -956 -1 -1089 65 -122 60 -238 190 -285 320 -18 49 -23 89 -27 213 l-4 152 1141 0 1141 0 0 -375z m2498 223 c-4 -129 -8 -162 -28 -213 -78 -202 -246 -341 -452 -375 -39 -6 -389 -10 -930 -10 l-868 0 0 375 0 375 1141 0 1141 0 -4 -152z m762 -981 c51 -18 63 -61 58 -217 -3 -69 -10 -135 -16 -146 -7 -14 -25 -24 -49 -28 -60 -9 -269 -7 -298 4 -17 7 -33 26 -47 57 -18 42 -20 59 -14 152 10 170 33 190 221 190 61 0 126 -5 145 -12z m843 -10 c38 -25 47 -55 54 -172 5 -88 3 -107 -15 -148 -14 -31 -30 -50 -47 -57 -34 -13 -259 -13 -307 0 -20 6 -39 18 -43 28 -4 9 -9 73 -12 142 -9 217 5 232 217 227 102 -2 131 -5 153 -20z m823 0 c43 -22 54 -60 54 -186 0 -118 -15 -166 -60 -188 -31 -16 -259 -17 -312 -3 -33 9 -37 15 -43 53 -4 23 -7 93 -7 156 1 130 12 156 73 178 51 19 255 12 295 -10z m793 7 c72 -21 85 -51 86 -199 0 -138 -12 -167 -79 -184 -58 -14 -241 -13 -286 2 -50 17 -62 61 -58 207 4 135 15 162 75 178 60 16 203 14 262 -4z m841 3 c55 -19 70 -60 69 -192 0 -138 -12 -176 -59 -192 -37 -13 -258 -16 -299 -4 -45 12 -64 53 -69 145 -6 107 4 189 26 217 10 11 33 24 52 29 53 12 241 10 280 -3z"/>
 </g>
<g id="layer102" fill="#c6ced4" stroke="none">
 <path d="M583 8613 c15 -2 39 -2 55 0 15 2 2 4 -28 4 -30 0 -43 -2 -27 -4z"/>
 <path d="M4598 8613 c17 -2 47 -2 65 0 17 2 3 4 -33 4 -36 0 -50 -2 -32 -4z"/>
 <path d="M5140 8567 c0 -2 15 -16 33 -33 l32 -29 -29 33 c-28 30 -36 37 -36 29z"/>
 <path d="M5243 8175 c0 -33 2 -45 4 -27 2 18 2 45 0 60 -2 15 -4 0 -4 -33z"/>
 <path d="M7298 7463 c12 -2 30 -2 40 0 9 3 -1 5 -23 4 -22 0 -30 -2 -17 -4z"/>
 <path d="M7755 7320 c21 -22 41 -40 44 -40 3 0 -13 18 -34 40 -21 22 -41 40 -44 40 -3 0 13 -18 34 -40z"/>
 <path d="M7182 6800 c0 -19 2 -27 5 -17 2 9 2 25 0 35 -3 9 -5 1 -5 -18z"/>
 <path d="M7613 6720 c0 -47 2 -66 4 -42 2 23 2 61 0 85 -2 23 -4 4 -4 -43z"/>
 <path d="M7183 6675 c0 -22 2 -30 4 -17 2 12 2 30 0 40 -3 9 -5 -1 -4 -23z"/>
 <path d="M5693 6513 c9 -2 25 -2 35 0 9 3 1 5 -18 5 -19 0 -27 -2 -17 -5z"/>
 <path d="M6528 6513 c18 -2 45 -2 60 0 15 2 0 4 -33 4 -33 0 -45 -2 -27 -4z"/>
 <path d="M7358 6513 c23 -2 59 -2 80 0 20 2 1 4 -43 4 -44 0 -61 -2 -37 -4z"/>
 <path d="M8605 5720 c38 -38 72 -70 74 -70 3 0 -26 32 -64 70 -38 39 -72 70 -74 70 -3 0 26 -31 64 -70z"/>
 <path d="M2635 5325 c0 -209 1 -296 2 -193 2 103 2 274 0 380 -1 106 -2 22 -2 -187z"/>
 <path d="M2845 4930 c0 -426 1 -601 2 -387 2 213 2 561 0 775 -1 213 -2 38 -2 -388z"/>
 <path d="M3595 5220 c0 -267 1 -376 2 -242 2 133 2 351 0 485 -1 133 -2 24 -2 -243z"/>
 <path d="M4385 5220 c0 -267 1 -376 2 -242 2 133 2 351 0 485 -1 133 -2 24 -2 -243z"/>
 <path d="M5135 5200 c0 -278 1 -391 2 -253 2 139 2 367 0 506 -1 138 -2 25 -2 -253z"/>
 <path d="M345 4675 c0 -286 1 -402 2 -257 2 145 2 379 0 520 -1 141 -2 23 -2 -263z"/>
 <path d="M9590 5047 c0 -2 15 -16 33 -33 l32 -29 -29 33 c-28 30 -36 37 -36 29z"/>
 <path d="M1095 4555 c0 -220 1 -309 2 -197 2 112 2 292 0 400 -1 108 -2 17 -2 -203z"/>
 <path d="M5404 4685 c0 -143 2 -200 3 -127 2 73 2 190 0 260 -1 70 -3 10 -3 -133z"/>
 <path d="M5654 4780 c0 -91 2 -128 3 -82 2 45 2 119 0 165 -1 45 -3 8 -3 -83z"/>
 <path d="M6234 4685 c0 -143 2 -200 3 -127 2 73 2 190 0 260 -1 70 -3 10 -3 -133z"/>
 <path d="M6484 4780 c0 -91 2 -128 3 -82 2 45 2 119 0 165 -1 45 -3 8 -3 -83z"/>
 <path d="M7124 4878 l-29 -33 33 29 c17 17 32 31 32 33 0 8 -8 1 -36 -29z"/>
 <path d="M8784 4878 l-29 -33 33 29 c17 17 32 31 32 33 0 8 -8 1 -36 -29z"/>
 <path d="M7072 4602 l-2 -183 128 3 127 3 0 133 1 132 -3 -130 -4 -130 -119 0 -120 0 -3 178 -2 177 -3 -183z"/>
 <path d="M8732 4602 l-2 -183 128 3 127 3 0 133 1 132 -3 -130 -4 -130 -119 0 -120 0 -3 178 -2 177 -3 -183z"/>
 <path d="M7653 4423 c37 -2 96 -2 130 0 34 2 4 3 -68 3 -71 0 -99 -1 -62 -3z"/>
 <path d="M8223 4423 c37 -2 96 -2 130 0 34 2 4 3 -68 3 -71 0 -99 -1 -62 -3z"/>
 <path d="M9313 4423 c37 -2 96 -2 130 0 34 2 4 3 -68 3 -71 0 -99 -1 -62 -3z"/>
 <path d="M5404 4235 c0 -71 1 -99 3 -62 2 37 2 96 0 130 -2 34 -3 4 -3 -68z"/>
 <path d="M6234 4235 c0 -71 1 -99 3 -62 2 37 2 96 0 130 -2 34 -3 4 -3 -68z"/>
 <path d="M6484 4235 c0 -71 1 -99 3 -62 2 37 2 96 0 130 -2 34 -3 4 -3 -68z"/>
 <path d="M7073 4315 c0 -27 2 -38 4 -22 2 15 2 37 0 50 -2 12 -4 0 -4 -28z"/>
 <path d="M7904 4235 c0 -71 1 -99 3 -62 2 37 2 96 0 130 -2 34 -3 4 -3 -68z"/>
 <path d="M8733 4315 c0 -27 2 -38 4 -22 2 15 2 37 0 50 -2 12 -4 0 -4 -28z"/>
 <path d="M7100 4197 c0 -2 15 -16 33 -33 l32 -29 -29 33 c-28 30 -36 37 -36 29z"/>
 <path d="M8760 4197 c0 -2 15 -16 33 -33 l32 -29 -29 33 c-28 30 -36 37 -36 29z"/>
 <path d="M344 3830 c0 -69 1 -97 3 -62 2 34 2 90 0 125 -2 34 -3 6 -3 -63z"/>
 <path d="M2635 3575 c0 -209 1 -296 2 -193 2 103 2 274 0 380 -1 106 -2 22 -2 -187z"/>
 <path d="M2845 3575 c0 -209 1 -296 2 -193 2 103 2 274 0 380 -1 106 -2 22 -2 -187z"/>
 <path d="M5134 3830 c0 -69 1 -97 3 -62 2 34 2 90 0 125 -2 34 -3 6 -3 -63z"/>
 <path d="M7182 2670 c0 -19 2 -27 5 -17 2 9 2 25 0 35 -3 9 -5 1 -5 -18z"/>
 <path d="M7613 2630 c0 -41 2 -58 4 -37 2 20 2 54 0 75 -2 20 -4 3 -4 -38z"/>
 <path d="M8003 2615 c0 -27 2 -38 4 -22 2 15 2 37 0 50 -2 12 -4 0 -4 -28z"/>
 <path d="M7183 2565 c0 -22 2 -30 4 -17 2 12 2 30 0 40 -3 9 -5 -1 -4 -23z"/>
 <path d="M9298 1883 c12 -2 32 -2 45 0 12 2 2 4 -23 4 -25 0 -35 -2 -22 -4z"/>
 <path d="M323 1873 c130 -2 344 -2 475 0 130 1 23 2 -238 2 -261 0 -368 -1 -237 -2z"/>
 <path d="M7613 1873 c158 -2 416 -2 575 0 158 1 28 2 -288 2 -316 0 -446 -1 -287 -2z"/>
 <path d="M5154 1740 c0 -74 1 -105 3 -67 2 37 2 97 0 135 -2 37 -3 6 -3 -68z"/>
 <path d="M183 1573 c104 -2 270 -2 370 0 100 1 16 2 -188 2 -203 0 -285 -1 -182 -2z"/>
 <path d="M5198 1573 c12 -2 30 -2 40 0 9 3 -1 5 -23 4 -22 0 -30 -2 -17 -4z"/>
 <path d="M308 803 c12 -2 32 -2 45 0 12 2 2 4 -23 4 -25 0 -35 -2 -22 -4z"/>
 <path d="M4853 803 c9 -2 25 -2 35 0 9 3 1 5 -18 5 -19 0 -27 -2 -17 -5z"/>
 <path d="M1393 605 c0 -27 2 -38 4 -22 2 15 2 37 0 50 -2 12 -4 0 -4 -28z"/>
 <path d="M3699 133 l-34 -38 38 34 c20 19 37 36 37 38 0 8 -8 0 -41 -34z"/>
 <path d="M1998 3 c23 -2 61 -2 85 0 23 2 4 4 -43 4 -47 0 -66 -2 -42 -4z"/>
 <path d="M3278 3 c12 -2 30 -2 40 0 9 3 -1 5 -23 4 -22 0 -30 -2 -17 -4z"/>
 </g>

</svg>